<svg width="32" height="32" viewBox="0 0 32 32" fill="none" xmlns="http://www.w3.org/2000/svg">
<path d="M16.5099 10.0375L16 10.6018L17.3333 14L19.4166 15.8438L20.914 14.0183L20 11.3333L17.6523 8.96927C17.2478 9.28858 16.8652 9.64446 16.5099 10.0375Z" fill="#1F37B7"/>
<path d="M20.9149 14.0186C21.5085 13.362 22.2239 13.0289 23.0415 13.0289C24.2095 13.0289 26.0624 13.8356 26.0624 16C26.0624 18.1645 24.2095 18.9711 23.0416 18.9711C22.2239 18.9711 21.5085 18.6381 20.915 17.9815L19.4166 15.8438L15.9999 10.6018L15.3333 16.6667L15.9999 21.3983L16.5099 21.9625C17.797 23.3867 19.4317 24.3406 21.2373 24.7214C22.9141 25.0749 24.6655 24.9289 26.3019 24.2991C27.9383 23.6692 29.3355 22.6033 30.3426 21.2165C31.4268 19.7235 31.9999 17.9196 31.9999 16C31.9999 14.0805 31.4268 12.2766 30.3425 10.7836C29.3354 9.39683 27.9382 8.33096 26.3018 7.70108C24.6654 7.07114 22.9141 6.92521 21.2372 7.27871C19.93 7.55433 18.7132 8.13189 17.6522 8.96933L20.9149 14.0186Z" fill="#2D4CDB"/>
<path d="M15.4901 21.9625L16.0001 21.3982L14.6667 18L12.5834 16.1562L11.0861 17.9817L12.0001 20.6667L14.3478 23.0307C14.7522 22.7114 15.1349 22.3556 15.4901 21.9625Z" fill="#2D4CDB"/>
<path d="M11.085 17.9814C10.4914 18.6381 9.776 18.9711 8.95844 18.9711C7.79044 18.9711 5.9375 18.1644 5.9375 16C5.9375 13.8355 7.79044 13.0289 8.95837 13.0289C9.77594 13.0289 10.4914 13.3619 11.0849 14.0186L12.5833 16.1562L16 21.3983V10.6018L15.4901 10.0375C14.203 8.61332 12.5683 7.65938 10.7627 7.27863C9.08587 6.92513 7.3345 7.07113 5.69812 7.70095C4.06175 8.33082 2.6645 9.39676 1.65744 10.7835C0.573125 12.2766 0 14.0804 0 16C0 17.9196 0.573125 19.7234 1.65744 21.2164C2.6645 22.6032 4.06175 23.6691 5.69812 24.2989C7.3345 24.9289 9.08587 25.0748 10.7627 24.7213C12.0699 24.4457 13.2867 23.8681 14.3477 23.0307L11.085 17.9814Z" fill="#3E64FF"/>
</svg>
